<mxfile host="app.diagrams.net" agent="Mozilla/5.0 (X11; Linux x86_64) AppleWebKit/537.36 (KHTML, like Gecko) Chrome/129.0.0.0 Safari/537.36" version="24.7.17">
  <diagram name="Page-1" id="hckZ-cUkYHznHsd1BJEK">
    <mxGraphModel dx="1433" dy="819" grid="1" gridSize="10" guides="1" tooltips="1" connect="1" arrows="1" fold="1" page="1" pageScale="1" pageWidth="850" pageHeight="1100" math="0" shadow="0">
      <root>
        <mxCell id="0" />
        <mxCell id="1" parent="0" />
        <mxCell id="D85kQSMyPtW2imJUh7Kq-1" value="User" style="rounded=0;whiteSpace=wrap;html=1;" vertex="1" parent="1">
          <mxGeometry x="100" y="180" width="120" height="60" as="geometry" />
        </mxCell>
        <mxCell id="D85kQSMyPtW2imJUh7Kq-2" value="name" style="ellipse;whiteSpace=wrap;html=1;" vertex="1" parent="1">
          <mxGeometry x="10" y="140" width="60" height="40" as="geometry" />
        </mxCell>
        <mxCell id="D85kQSMyPtW2imJUh7Kq-3" value="mail" style="ellipse;whiteSpace=wrap;html=1;" vertex="1" parent="1">
          <mxGeometry y="190" width="60" height="40" as="geometry" />
        </mxCell>
        <mxCell id="D85kQSMyPtW2imJUh7Kq-4" value="password" style="ellipse;whiteSpace=wrap;html=1;" vertex="1" parent="1">
          <mxGeometry x="20" y="240" width="60" height="40" as="geometry" />
        </mxCell>
        <mxCell id="D85kQSMyPtW2imJUh7Kq-6" value="&lt;u&gt;id&lt;/u&gt;" style="ellipse;whiteSpace=wrap;html=1;" vertex="1" parent="1">
          <mxGeometry x="70" y="120" width="60" height="40" as="geometry" />
        </mxCell>
        <mxCell id="D85kQSMyPtW2imJUh7Kq-7" value="" style="endArrow=none;html=1;rounded=0;exitX=1;exitY=1;exitDx=0;exitDy=0;entryX=0.25;entryY=0;entryDx=0;entryDy=0;" edge="1" parent="1" source="D85kQSMyPtW2imJUh7Kq-6" target="D85kQSMyPtW2imJUh7Kq-1">
          <mxGeometry width="50" height="50" relative="1" as="geometry">
            <mxPoint x="400" y="450" as="sourcePoint" />
            <mxPoint x="450" y="400" as="targetPoint" />
          </mxGeometry>
        </mxCell>
        <mxCell id="D85kQSMyPtW2imJUh7Kq-8" value="" style="endArrow=none;html=1;rounded=0;exitX=1;exitY=1;exitDx=0;exitDy=0;entryX=0;entryY=0.5;entryDx=0;entryDy=0;" edge="1" parent="1" source="D85kQSMyPtW2imJUh7Kq-2" target="D85kQSMyPtW2imJUh7Kq-1">
          <mxGeometry width="50" height="50" relative="1" as="geometry">
            <mxPoint x="131" y="164" as="sourcePoint" />
            <mxPoint x="140" y="190" as="targetPoint" />
          </mxGeometry>
        </mxCell>
        <mxCell id="D85kQSMyPtW2imJUh7Kq-9" value="" style="endArrow=none;html=1;rounded=0;exitX=1;exitY=0.5;exitDx=0;exitDy=0;entryX=0;entryY=0.5;entryDx=0;entryDy=0;" edge="1" parent="1" source="D85kQSMyPtW2imJUh7Kq-3" target="D85kQSMyPtW2imJUh7Kq-1">
          <mxGeometry width="50" height="50" relative="1" as="geometry">
            <mxPoint x="71" y="184" as="sourcePoint" />
            <mxPoint x="110" y="220" as="targetPoint" />
          </mxGeometry>
        </mxCell>
        <mxCell id="D85kQSMyPtW2imJUh7Kq-10" value="" style="endArrow=none;html=1;rounded=0;exitX=1;exitY=0;exitDx=0;exitDy=0;entryX=0;entryY=0.5;entryDx=0;entryDy=0;" edge="1" parent="1" source="D85kQSMyPtW2imJUh7Kq-4" target="D85kQSMyPtW2imJUh7Kq-1">
          <mxGeometry width="50" height="50" relative="1" as="geometry">
            <mxPoint x="70" y="220" as="sourcePoint" />
            <mxPoint x="110" y="220" as="targetPoint" />
          </mxGeometry>
        </mxCell>
        <mxCell id="D85kQSMyPtW2imJUh7Kq-11" value="Contract" style="rounded=0;whiteSpace=wrap;html=1;" vertex="1" parent="1">
          <mxGeometry x="360" y="390" width="120" height="60" as="geometry" />
        </mxCell>
        <mxCell id="D85kQSMyPtW2imJUh7Kq-12" value="&lt;u&gt;id&lt;/u&gt;" style="ellipse;whiteSpace=wrap;html=1;" vertex="1" parent="1">
          <mxGeometry x="300" y="470" width="60" height="40" as="geometry" />
        </mxCell>
        <mxCell id="D85kQSMyPtW2imJUh7Kq-13" value="" style="endArrow=none;html=1;rounded=0;exitX=1;exitY=0;exitDx=0;exitDy=0;entryX=0.25;entryY=1;entryDx=0;entryDy=0;" edge="1" parent="1" source="D85kQSMyPtW2imJUh7Kq-12" target="D85kQSMyPtW2imJUh7Kq-11">
          <mxGeometry width="50" height="50" relative="1" as="geometry">
            <mxPoint x="81" y="256" as="sourcePoint" />
            <mxPoint x="110" y="220" as="targetPoint" />
          </mxGeometry>
        </mxCell>
        <mxCell id="D85kQSMyPtW2imJUh7Kq-14" value="sent" style="rhombus;whiteSpace=wrap;html=1;" vertex="1" parent="1">
          <mxGeometry x="230" y="320" width="80" height="80" as="geometry" />
        </mxCell>
        <mxCell id="D85kQSMyPtW2imJUh7Kq-15" value="terms &amp;amp; conditions" style="ellipse;whiteSpace=wrap;html=1;" vertex="1" parent="1">
          <mxGeometry x="390" y="480" width="60" height="40" as="geometry" />
        </mxCell>
        <mxCell id="D85kQSMyPtW2imJUh7Kq-16" value="" style="endArrow=none;html=1;rounded=0;exitX=0.5;exitY=0;exitDx=0;exitDy=0;entryX=0.5;entryY=1;entryDx=0;entryDy=0;" edge="1" parent="1" source="D85kQSMyPtW2imJUh7Kq-15" target="D85kQSMyPtW2imJUh7Kq-11">
          <mxGeometry width="50" height="50" relative="1" as="geometry">
            <mxPoint x="361" y="486" as="sourcePoint" />
            <mxPoint x="400" y="460" as="targetPoint" />
          </mxGeometry>
        </mxCell>
        <mxCell id="D85kQSMyPtW2imJUh7Kq-25" value="received" style="rhombus;whiteSpace=wrap;html=1;" vertex="1" parent="1">
          <mxGeometry x="400" y="220" width="80" height="80" as="geometry" />
        </mxCell>
        <mxCell id="D85kQSMyPtW2imJUh7Kq-26" value="" style="endArrow=none;html=1;rounded=0;exitX=0.75;exitY=1;exitDx=0;exitDy=0;entryX=0;entryY=0;entryDx=0;entryDy=0;" edge="1" parent="1" source="D85kQSMyPtW2imJUh7Kq-1" target="D85kQSMyPtW2imJUh7Kq-14">
          <mxGeometry width="50" height="50" relative="1" as="geometry">
            <mxPoint x="400" y="450" as="sourcePoint" />
            <mxPoint x="450" y="400" as="targetPoint" />
          </mxGeometry>
        </mxCell>
        <mxCell id="D85kQSMyPtW2imJUh7Kq-27" value="" style="endArrow=none;html=1;rounded=0;exitX=1;exitY=1;exitDx=0;exitDy=0;entryX=0;entryY=0.5;entryDx=0;entryDy=0;" edge="1" parent="1" source="D85kQSMyPtW2imJUh7Kq-14" target="D85kQSMyPtW2imJUh7Kq-11">
          <mxGeometry width="50" height="50" relative="1" as="geometry">
            <mxPoint x="400" y="450" as="sourcePoint" />
            <mxPoint x="450" y="400" as="targetPoint" />
          </mxGeometry>
        </mxCell>
        <mxCell id="D85kQSMyPtW2imJUh7Kq-28" value="" style="endArrow=none;html=1;rounded=0;exitX=1;exitY=0.5;exitDx=0;exitDy=0;entryX=0;entryY=0;entryDx=0;entryDy=0;" edge="1" parent="1" source="D85kQSMyPtW2imJUh7Kq-1" target="D85kQSMyPtW2imJUh7Kq-25">
          <mxGeometry width="50" height="50" relative="1" as="geometry">
            <mxPoint x="400" y="450" as="sourcePoint" />
            <mxPoint x="450" y="400" as="targetPoint" />
          </mxGeometry>
        </mxCell>
        <mxCell id="D85kQSMyPtW2imJUh7Kq-29" value="" style="endArrow=none;html=1;rounded=0;entryX=1;entryY=1;entryDx=0;entryDy=0;exitX=0.5;exitY=0;exitDx=0;exitDy=0;" edge="1" parent="1" source="D85kQSMyPtW2imJUh7Kq-11" target="D85kQSMyPtW2imJUh7Kq-25">
          <mxGeometry width="50" height="50" relative="1" as="geometry">
            <mxPoint x="400" y="450" as="sourcePoint" />
            <mxPoint x="450" y="400" as="targetPoint" />
          </mxGeometry>
        </mxCell>
        <mxCell id="D85kQSMyPtW2imJUh7Kq-31" value="1" style="text;html=1;align=center;verticalAlign=middle;resizable=0;points=[];autosize=1;strokeColor=none;fillColor=none;" vertex="1" parent="1">
          <mxGeometry x="325" y="198" width="30" height="30" as="geometry" />
        </mxCell>
        <mxCell id="D85kQSMyPtW2imJUh7Kq-32" value="M" style="text;html=1;align=center;verticalAlign=middle;resizable=0;points=[];autosize=1;strokeColor=none;fillColor=none;" vertex="1" parent="1">
          <mxGeometry x="445" y="308" width="30" height="30" as="geometry" />
        </mxCell>
        <mxCell id="D85kQSMyPtW2imJUh7Kq-33" value="1" style="text;html=1;align=center;verticalAlign=middle;resizable=0;points=[];autosize=1;strokeColor=none;fillColor=none;" vertex="1" parent="1">
          <mxGeometry x="175" y="278" width="30" height="30" as="geometry" />
        </mxCell>
        <mxCell id="D85kQSMyPtW2imJUh7Kq-34" value="M" style="text;html=1;align=center;verticalAlign=middle;resizable=0;points=[];autosize=1;strokeColor=none;fillColor=none;" vertex="1" parent="1">
          <mxGeometry x="305" y="408" width="30" height="30" as="geometry" />
        </mxCell>
        <mxCell id="D85kQSMyPtW2imJUh7Kq-35" value="&lt;font style=&quot;font-size: 24px;&quot;&gt;User: {[&lt;u style=&quot;&quot;&gt;id:int serial&lt;/u&gt;, name: string, mail:string, password:string]}&lt;/font&gt;" style="text;html=1;align=center;verticalAlign=middle;resizable=0;points=[];autosize=1;strokeColor=none;fillColor=none;" vertex="1" parent="1">
          <mxGeometry x="30" y="710" width="680" height="40" as="geometry" />
        </mxCell>
        <mxCell id="D85kQSMyPtW2imJUh7Kq-36" value="&lt;font style=&quot;font-size: 24px;&quot;&gt;Contract: {[&lt;u style=&quot;&quot;&gt;id:int serial&lt;/u&gt;, title: string, status:enum, price:int, photo:BLOB, t&amp;amp;c:string, &lt;font color=&quot;#33ff47&quot;&gt;sender:int, receiver:int&lt;/font&gt;]}&lt;/font&gt;" style="text;html=1;align=center;verticalAlign=middle;resizable=0;points=[];autosize=1;strokeColor=none;fillColor=none;" vertex="1" parent="1">
          <mxGeometry x="39" y="760" width="1140" height="40" as="geometry" />
        </mxCell>
        <mxCell id="D85kQSMyPtW2imJUh7Kq-37" value="Photo" style="rounded=0;whiteSpace=wrap;html=1;" vertex="1" parent="1">
          <mxGeometry x="820" y="390" width="120" height="60" as="geometry" />
        </mxCell>
        <mxCell id="D85kQSMyPtW2imJUh7Kq-38" value="Product" style="rounded=0;whiteSpace=wrap;html=1;" vertex="1" parent="1">
          <mxGeometry x="560" y="190" width="120" height="60" as="geometry" />
        </mxCell>
        <mxCell id="D85kQSMyPtW2imJUh7Kq-39" value="photo: blob" style="ellipse;whiteSpace=wrap;html=1;" vertex="1" parent="1">
          <mxGeometry x="980" y="440" width="75" height="50" as="geometry" />
        </mxCell>
        <mxCell id="D85kQSMyPtW2imJUh7Kq-40" value="" style="endArrow=none;html=1;rounded=0;entryX=1;entryY=0.5;entryDx=0;entryDy=0;exitX=0;exitY=0;exitDx=0;exitDy=0;" edge="1" parent="1" source="D85kQSMyPtW2imJUh7Kq-39" target="D85kQSMyPtW2imJUh7Kq-37">
          <mxGeometry width="50" height="50" relative="1" as="geometry">
            <mxPoint x="450" y="500" as="sourcePoint" />
            <mxPoint x="500" y="450" as="targetPoint" />
          </mxGeometry>
        </mxCell>
        <mxCell id="D85kQSMyPtW2imJUh7Kq-41" value="has" style="rhombus;whiteSpace=wrap;html=1;" vertex="1" parent="1">
          <mxGeometry x="730" y="278" width="80" height="80" as="geometry" />
        </mxCell>
        <mxCell id="D85kQSMyPtW2imJUh7Kq-42" value="" style="endArrow=none;html=1;rounded=0;entryX=1;entryY=1;entryDx=0;entryDy=0;exitX=0;exitY=0;exitDx=0;exitDy=0;" edge="1" parent="1" source="D85kQSMyPtW2imJUh7Kq-41" target="D85kQSMyPtW2imJUh7Kq-38">
          <mxGeometry width="50" height="50" relative="1" as="geometry">
            <mxPoint x="450" y="500" as="sourcePoint" />
            <mxPoint x="500" y="450" as="targetPoint" />
          </mxGeometry>
        </mxCell>
        <mxCell id="D85kQSMyPtW2imJUh7Kq-43" value="" style="endArrow=none;html=1;rounded=0;entryX=1;entryY=1;entryDx=0;entryDy=0;exitX=0;exitY=0;exitDx=0;exitDy=0;" edge="1" parent="1" source="D85kQSMyPtW2imJUh7Kq-37" target="D85kQSMyPtW2imJUh7Kq-41">
          <mxGeometry width="50" height="50" relative="1" as="geometry">
            <mxPoint x="760" y="308" as="sourcePoint" />
            <mxPoint x="690" y="260" as="targetPoint" />
          </mxGeometry>
        </mxCell>
        <mxCell id="D85kQSMyPtW2imJUh7Kq-44" value="1" style="text;html=1;align=center;verticalAlign=middle;resizable=0;points=[];autosize=1;strokeColor=none;fillColor=none;" vertex="1" parent="1">
          <mxGeometry x="705" y="238" width="30" height="30" as="geometry" />
        </mxCell>
        <mxCell id="D85kQSMyPtW2imJUh7Kq-45" value="M" style="text;html=1;align=center;verticalAlign=middle;resizable=0;points=[];autosize=1;strokeColor=none;fillColor=none;" vertex="1" parent="1">
          <mxGeometry x="805" y="348" width="30" height="30" as="geometry" />
        </mxCell>
        <mxCell id="D85kQSMyPtW2imJUh7Kq-46" value="" style="endArrow=none;html=1;rounded=0;exitX=1;exitY=0;exitDx=0;exitDy=0;entryX=0;entryY=1;entryDx=0;entryDy=0;" edge="1" parent="1" source="D85kQSMyPtW2imJUh7Kq-11" target="D85kQSMyPtW2imJUh7Kq-47">
          <mxGeometry width="50" height="50" relative="1" as="geometry">
            <mxPoint x="450" y="500" as="sourcePoint" />
            <mxPoint x="520" y="360" as="targetPoint" />
          </mxGeometry>
        </mxCell>
        <mxCell id="D85kQSMyPtW2imJUh7Kq-47" value="of" style="rhombus;whiteSpace=wrap;html=1;" vertex="1" parent="1">
          <mxGeometry x="500" y="300" width="80" height="80" as="geometry" />
        </mxCell>
        <mxCell id="D85kQSMyPtW2imJUh7Kq-48" value="" style="endArrow=none;html=1;rounded=0;entryX=0.5;entryY=1;entryDx=0;entryDy=0;exitX=1;exitY=0;exitDx=0;exitDy=0;" edge="1" parent="1" source="D85kQSMyPtW2imJUh7Kq-47" target="D85kQSMyPtW2imJUh7Kq-38">
          <mxGeometry width="50" height="50" relative="1" as="geometry">
            <mxPoint x="450" y="500" as="sourcePoint" />
            <mxPoint x="500" y="450" as="targetPoint" />
          </mxGeometry>
        </mxCell>
        <mxCell id="D85kQSMyPtW2imJUh7Kq-49" value="1" style="text;html=1;align=center;verticalAlign=middle;resizable=0;points=[];autosize=1;strokeColor=none;fillColor=none;" vertex="1" parent="1">
          <mxGeometry x="495" y="378" width="30" height="30" as="geometry" />
        </mxCell>
        <mxCell id="D85kQSMyPtW2imJUh7Kq-50" value="1" style="text;html=1;align=center;verticalAlign=middle;resizable=0;points=[];autosize=1;strokeColor=none;fillColor=none;" vertex="1" parent="1">
          <mxGeometry x="585" y="288" width="30" height="30" as="geometry" />
        </mxCell>
        <mxCell id="D85kQSMyPtW2imJUh7Kq-52" value="title" style="ellipse;whiteSpace=wrap;html=1;" vertex="1" parent="1">
          <mxGeometry x="690" y="120" width="60" height="40" as="geometry" />
        </mxCell>
        <mxCell id="D85kQSMyPtW2imJUh7Kq-57" value="" style="endArrow=none;html=1;rounded=0;exitX=1;exitY=0;exitDx=0;exitDy=0;entryX=0;entryY=1;entryDx=0;entryDy=0;" edge="1" parent="1" source="D85kQSMyPtW2imJUh7Kq-38" target="D85kQSMyPtW2imJUh7Kq-52">
          <mxGeometry width="50" height="50" relative="1" as="geometry">
            <mxPoint x="450" y="470" as="sourcePoint" />
            <mxPoint x="500" y="420" as="targetPoint" />
          </mxGeometry>
        </mxCell>
      </root>
    </mxGraphModel>
  </diagram>
</mxfile>
